<mxfile host="app.diagrams.net" agent="Mozilla/5.0 (Windows NT 10.0; Win64; x64) AppleWebKit/537.36 (KHTML, like Gecko) Chrome/132.0.0.0 Safari/537.36" version="26.0.10">
  <diagram name="PÃ¡gina-1" id="fIWNVf9F84Dy-bLZ8eNT">
    <mxGraphModel dx="1257" dy="620" grid="1" gridSize="10" guides="1" tooltips="1" connect="1" arrows="1" fold="1" page="1" pageScale="1" pageWidth="827" pageHeight="1169" math="0" shadow="0">
      <root>
        <mxCell id="0" />
        <mxCell id="1" parent="0" />
        <mxCell id="eG0zyrIgUox6buYHfBgq-13" style="edgeStyle=orthogonalEdgeStyle;rounded=0;orthogonalLoop=1;jettySize=auto;html=1;exitX=0.5;exitY=1;exitDx=0;exitDy=0;exitPerimeter=0;entryX=0.5;entryY=0;entryDx=0;entryDy=0;" edge="1" parent="1" source="eG0zyrIgUox6buYHfBgq-1" target="eG0zyrIgUox6buYHfBgq-2">
          <mxGeometry relative="1" as="geometry" />
        </mxCell>
        <mxCell id="eG0zyrIgUox6buYHfBgq-1" value="&lt;font style=&quot;vertical-align: inherit;&quot;&gt;&lt;font style=&quot;vertical-align: inherit;&quot;&gt;INICIO&lt;/font&gt;&lt;/font&gt;" style="strokeWidth=2;html=1;shape=mxgraph.flowchart.start_1;whiteSpace=wrap;" vertex="1" parent="1">
          <mxGeometry x="346" y="30" width="136" height="90" as="geometry" />
        </mxCell>
        <mxCell id="eG0zyrIgUox6buYHfBgq-14" style="edgeStyle=orthogonalEdgeStyle;rounded=0;orthogonalLoop=1;jettySize=auto;html=1;exitX=0.5;exitY=1;exitDx=0;exitDy=0;entryX=0.5;entryY=0;entryDx=0;entryDy=0;" edge="1" parent="1" source="eG0zyrIgUox6buYHfBgq-2" target="eG0zyrIgUox6buYHfBgq-3">
          <mxGeometry relative="1" as="geometry" />
        </mxCell>
        <mxCell id="eG0zyrIgUox6buYHfBgq-2" value="&lt;font style=&quot;vertical-align: inherit;&quot;&gt;&lt;font style=&quot;vertical-align: inherit;&quot;&gt;NUM_MAIOR_100 = [ ]&lt;/font&gt;&lt;/font&gt;&lt;div&gt;&lt;font style=&quot;vertical-align: inherit;&quot;&gt;&lt;font style=&quot;vertical-align: inherit;&quot;&gt;&lt;font style=&quot;vertical-align: inherit;&quot;&gt;&lt;font style=&quot;vertical-align: inherit;&quot;&gt;NUM&lt;/font&gt;&lt;/font&gt;&lt;/font&gt;&lt;/font&gt;&lt;/div&gt;" style="shape=parallelogram;html=1;strokeWidth=2;perimeter=parallelogramPerimeter;whiteSpace=wrap;rounded=1;arcSize=12;size=0.23;" vertex="1" parent="1">
          <mxGeometry x="296" y="140" width="236" height="50" as="geometry" />
        </mxCell>
        <mxCell id="eG0zyrIgUox6buYHfBgq-3" value="&lt;font style=&quot;vertical-align: inherit;&quot;&gt;&lt;font style=&quot;vertical-align: inherit;&quot;&gt;ENQUANTO NUM &amp;gt; 0&lt;/font&gt;&lt;/font&gt;" style="rounded=1;whiteSpace=wrap;html=1;absoluteArcSize=1;arcSize=14;strokeWidth=2;" vertex="1" parent="1">
          <mxGeometry x="254" y="210" width="320" height="60" as="geometry" />
        </mxCell>
        <mxCell id="eG0zyrIgUox6buYHfBgq-4" value="&lt;font style=&quot;vertical-align: inherit;&quot;&gt;&lt;font style=&quot;vertical-align: inherit;&quot;&gt;LER NUM&lt;/font&gt;&lt;/font&gt;" style="html=1;strokeWidth=2;shape=manualInput;whiteSpace=wrap;rounded=1;size=26;arcSize=11;" vertex="1" parent="1">
          <mxGeometry x="314" y="290" width="200" height="80" as="geometry" />
        </mxCell>
        <mxCell id="eG0zyrIgUox6buYHfBgq-5" value="&lt;font style=&quot;vertical-align: inherit;&quot;&gt;&lt;font style=&quot;vertical-align: inherit;&quot;&gt;NUM &amp;gt; 0 ?&lt;/font&gt;&lt;/font&gt;" style="strokeWidth=2;html=1;shape=mxgraph.flowchart.decision;whiteSpace=wrap;" vertex="1" parent="1">
          <mxGeometry x="339" y="400" width="150" height="150" as="geometry" />
        </mxCell>
        <mxCell id="eG0zyrIgUox6buYHfBgq-11" style="edgeStyle=orthogonalEdgeStyle;rounded=0;orthogonalLoop=1;jettySize=auto;html=1;exitX=0;exitY=0.5;exitDx=0;exitDy=0;exitPerimeter=0;entryX=0;entryY=0.5;entryDx=0;entryDy=0;" edge="1" parent="1" source="eG0zyrIgUox6buYHfBgq-8" target="eG0zyrIgUox6buYHfBgq-3">
          <mxGeometry relative="1" as="geometry">
            <Array as="points">
              <mxPoint x="190" y="660" />
              <mxPoint x="190" y="240" />
            </Array>
          </mxGeometry>
        </mxCell>
        <mxCell id="eG0zyrIgUox6buYHfBgq-12" value="&lt;font style=&quot;vertical-align: inherit;&quot;&gt;&lt;font style=&quot;vertical-align: inherit;&quot;&gt;NAO&lt;/font&gt;&lt;/font&gt;" style="edgeLabel;html=1;align=center;verticalAlign=middle;resizable=0;points=[];" vertex="1" connectable="0" parent="eG0zyrIgUox6buYHfBgq-11">
          <mxGeometry x="-0.7733" y="-7" relative="1" as="geometry">
            <mxPoint as="offset" />
          </mxGeometry>
        </mxCell>
        <mxCell id="eG0zyrIgUox6buYHfBgq-19" style="edgeStyle=orthogonalEdgeStyle;rounded=0;orthogonalLoop=1;jettySize=auto;html=1;exitX=0.5;exitY=1;exitDx=0;exitDy=0;exitPerimeter=0;entryX=0.5;entryY=0;entryDx=0;entryDy=0;" edge="1" parent="1" source="eG0zyrIgUox6buYHfBgq-8" target="eG0zyrIgUox6buYHfBgq-18">
          <mxGeometry relative="1" as="geometry" />
        </mxCell>
        <mxCell id="eG0zyrIgUox6buYHfBgq-20" value="&lt;font style=&quot;vertical-align: inherit;&quot;&gt;&lt;font style=&quot;vertical-align: inherit;&quot;&gt;SIM&lt;/font&gt;&lt;/font&gt;" style="edgeLabel;html=1;align=center;verticalAlign=middle;resizable=0;points=[];" vertex="1" connectable="0" parent="eG0zyrIgUox6buYHfBgq-19">
          <mxGeometry x="-0.1268" y="-1" relative="1" as="geometry">
            <mxPoint as="offset" />
          </mxGeometry>
        </mxCell>
        <mxCell id="eG0zyrIgUox6buYHfBgq-8" value="&lt;font style=&quot;vertical-align: inherit;&quot;&gt;&lt;font style=&quot;vertical-align: inherit;&quot;&gt;&lt;font style=&quot;vertical-align: inherit;&quot;&gt;&lt;font style=&quot;vertical-align: inherit;&quot;&gt;NUM &amp;gt; 100 ?&lt;/font&gt;&lt;/font&gt;&lt;/font&gt;&lt;/font&gt;" style="strokeWidth=2;html=1;shape=mxgraph.flowchart.decision;whiteSpace=wrap;" vertex="1" parent="1">
          <mxGeometry x="339" y="584.5" width="150" height="150" as="geometry" />
        </mxCell>
        <mxCell id="eG0zyrIgUox6buYHfBgq-16" style="edgeStyle=orthogonalEdgeStyle;rounded=0;orthogonalLoop=1;jettySize=auto;html=1;exitX=0.5;exitY=1;exitDx=0;exitDy=0;entryX=0.516;entryY=0.214;entryDx=0;entryDy=0;entryPerimeter=0;" edge="1" parent="1" source="eG0zyrIgUox6buYHfBgq-3" target="eG0zyrIgUox6buYHfBgq-4">
          <mxGeometry relative="1" as="geometry" />
        </mxCell>
        <mxCell id="eG0zyrIgUox6buYHfBgq-17" style="edgeStyle=orthogonalEdgeStyle;rounded=0;orthogonalLoop=1;jettySize=auto;html=1;exitX=0.5;exitY=1;exitDx=0;exitDy=0;entryX=0.5;entryY=0;entryDx=0;entryDy=0;entryPerimeter=0;" edge="1" parent="1" source="eG0zyrIgUox6buYHfBgq-4" target="eG0zyrIgUox6buYHfBgq-5">
          <mxGeometry relative="1" as="geometry" />
        </mxCell>
        <mxCell id="eG0zyrIgUox6buYHfBgq-18" value="&lt;font style=&quot;vertical-align: inherit;&quot;&gt;&lt;font style=&quot;vertical-align: inherit;&quot;&gt;&lt;font style=&quot;vertical-align: inherit;&quot;&gt;&lt;font style=&quot;vertical-align: inherit;&quot;&gt;ADD NUM A NUM_MAIOR_100&lt;/font&gt;&lt;/font&gt;&lt;/font&gt;&lt;/font&gt;" style="rounded=1;whiteSpace=wrap;html=1;absoluteArcSize=1;arcSize=14;strokeWidth=2;" vertex="1" parent="1">
          <mxGeometry x="254" y="770" width="320" height="60" as="geometry" />
        </mxCell>
        <mxCell id="eG0zyrIgUox6buYHfBgq-29" style="edgeStyle=orthogonalEdgeStyle;rounded=0;orthogonalLoop=1;jettySize=auto;html=1;exitX=0.5;exitY=1;exitDx=0;exitDy=0;exitPerimeter=0;" edge="1" parent="1" source="eG0zyrIgUox6buYHfBgq-21" target="eG0zyrIgUox6buYHfBgq-22">
          <mxGeometry relative="1" as="geometry" />
        </mxCell>
        <mxCell id="eG0zyrIgUox6buYHfBgq-21" value="&lt;font style=&quot;vertical-align: inherit;&quot;&gt;&lt;font style=&quot;vertical-align: inherit;&quot;&gt;NUM_MAIOR_100&lt;/font&gt;&lt;/font&gt;" style="strokeWidth=2;html=1;shape=mxgraph.flowchart.display;whiteSpace=wrap;" vertex="1" parent="1">
          <mxGeometry x="314" y="870" width="200" height="120" as="geometry" />
        </mxCell>
        <mxCell id="eG0zyrIgUox6buYHfBgq-22" value="&lt;font style=&quot;vertical-align: inherit;&quot;&gt;&lt;font style=&quot;vertical-align: inherit;&quot;&gt;&lt;font style=&quot;vertical-align: inherit;&quot;&gt;&lt;font style=&quot;vertical-align: inherit;&quot;&gt;FIM&lt;/font&gt;&lt;/font&gt;&lt;/font&gt;&lt;/font&gt;" style="strokeWidth=2;html=1;shape=mxgraph.flowchart.start_1;whiteSpace=wrap;" vertex="1" parent="1">
          <mxGeometry x="346" y="1040" width="136" height="90" as="geometry" />
        </mxCell>
        <mxCell id="eG0zyrIgUox6buYHfBgq-26" style="edgeStyle=orthogonalEdgeStyle;rounded=0;orthogonalLoop=1;jettySize=auto;html=1;exitX=0;exitY=0.5;exitDx=0;exitDy=0;exitPerimeter=0;" edge="1" parent="1" source="eG0zyrIgUox6buYHfBgq-23" target="eG0zyrIgUox6buYHfBgq-21">
          <mxGeometry relative="1" as="geometry" />
        </mxCell>
        <mxCell id="eG0zyrIgUox6buYHfBgq-23" value="" style="strokeWidth=2;html=1;shape=mxgraph.flowchart.start_2;whiteSpace=wrap;" vertex="1" parent="1">
          <mxGeometry x="650" y="905" width="50" height="50" as="geometry" />
        </mxCell>
        <mxCell id="eG0zyrIgUox6buYHfBgq-24" style="edgeStyle=orthogonalEdgeStyle;rounded=0;orthogonalLoop=1;jettySize=auto;html=1;exitX=1;exitY=0.5;exitDx=0;exitDy=0;exitPerimeter=0;entryX=0.5;entryY=0;entryDx=0;entryDy=0;entryPerimeter=0;" edge="1" parent="1" source="eG0zyrIgUox6buYHfBgq-5" target="eG0zyrIgUox6buYHfBgq-23">
          <mxGeometry relative="1" as="geometry" />
        </mxCell>
        <mxCell id="eG0zyrIgUox6buYHfBgq-25" value="&lt;font style=&quot;vertical-align: inherit;&quot;&gt;&lt;font style=&quot;vertical-align: inherit;&quot;&gt;SIM&lt;/font&gt;&lt;/font&gt;" style="edgeLabel;html=1;align=center;verticalAlign=middle;resizable=0;points=[];" vertex="1" connectable="0" parent="eG0zyrIgUox6buYHfBgq-24">
          <mxGeometry x="-0.667" y="1" relative="1" as="geometry">
            <mxPoint as="offset" />
          </mxGeometry>
        </mxCell>
        <mxCell id="eG0zyrIgUox6buYHfBgq-27" style="edgeStyle=orthogonalEdgeStyle;rounded=0;orthogonalLoop=1;jettySize=auto;html=1;exitX=0.5;exitY=1;exitDx=0;exitDy=0;exitPerimeter=0;entryX=1;entryY=0.5;entryDx=0;entryDy=0;entryPerimeter=0;" edge="1" parent="1" source="eG0zyrIgUox6buYHfBgq-23" target="eG0zyrIgUox6buYHfBgq-22">
          <mxGeometry relative="1" as="geometry" />
        </mxCell>
        <mxCell id="eG0zyrIgUox6buYHfBgq-28" style="edgeStyle=orthogonalEdgeStyle;rounded=0;orthogonalLoop=1;jettySize=auto;html=1;exitX=0.5;exitY=1;exitDx=0;exitDy=0;entryX=0.5;entryY=0;entryDx=0;entryDy=0;entryPerimeter=0;" edge="1" parent="1" source="eG0zyrIgUox6buYHfBgq-18" target="eG0zyrIgUox6buYHfBgq-21">
          <mxGeometry relative="1" as="geometry" />
        </mxCell>
        <mxCell id="eG0zyrIgUox6buYHfBgq-30" style="edgeStyle=orthogonalEdgeStyle;rounded=0;orthogonalLoop=1;jettySize=auto;html=1;exitX=0.5;exitY=1;exitDx=0;exitDy=0;exitPerimeter=0;entryX=0.5;entryY=0;entryDx=0;entryDy=0;entryPerimeter=0;" edge="1" parent="1" source="eG0zyrIgUox6buYHfBgq-5" target="eG0zyrIgUox6buYHfBgq-8">
          <mxGeometry relative="1" as="geometry" />
        </mxCell>
        <mxCell id="eG0zyrIgUox6buYHfBgq-31" value="&lt;font style=&quot;vertical-align: inherit;&quot;&gt;&lt;font style=&quot;vertical-align: inherit;&quot;&gt;NAO&lt;/font&gt;&lt;/font&gt;" style="edgeLabel;html=1;align=center;verticalAlign=middle;resizable=0;points=[];" vertex="1" connectable="0" parent="eG0zyrIgUox6buYHfBgq-30">
          <mxGeometry x="-0.089" y="-1" relative="1" as="geometry">
            <mxPoint as="offset" />
          </mxGeometry>
        </mxCell>
      </root>
    </mxGraphModel>
  </diagram>
</mxfile>
